<svg xmlns="http://www.w3.org/2000/svg" width="24" height="24" fill="none" style="cursor:pointer"><path fill="#000" fill-rule="evenodd" d="M9.375 8A5.625 5.625 0 0 1 15 2.375h3c.345 0 .625.28.625.625v4c0 .345-.28.625-.625.625h-3a.375.375 0 0 0-.375.375v1.375H18c.345 0 .625.28.625.625v4c0 .345-.28.625-.625.625h-3.375V21c0 .345-.28.625-.625.625h-4A.625.625 0 0 1 9.375 21v-6.375H6A.625.625 0 0 1 5.375 14v-4c0-.345.28-.625.625-.625h3.375zM15 3.625A4.375 4.375 0 0 0 10.625 8v2c0 .345-.28.625-.625.625H6.625v2.75H10c.345 0 .625.28.625.625v6.375h2.75V14c0-.345.28-.625.625-.625h3.375v-2.75H14a.625.625 0 0 1-.625-.625V8c0-.897.727-1.625 1.625-1.625h2.375v-2.75z" clip-rule="evenodd"></path></svg>