<svg xmlns="http://www.w3.org/2000/svg" width="24" height="24" fill="none" style="cursor:pointer"><path fill="#000" fill-rule="evenodd" d="M1.375 6A4.625 4.625 0 0 1 6 1.375h12A4.625 4.625 0 0 1 22.625 6v12A4.625 4.625 0 0 1 18 22.625H6A4.625 4.625 0 0 1 1.375 18zM6 2.625A3.375 3.375 0 0 0 2.625 6v12A3.375 3.375 0 0 0 6 21.375h12A3.375 3.375 0 0 0 21.375 18V6A3.375 3.375 0 0 0 18 2.625zm12 3a.375.375 0 1 0 0 .75.375.375 0 0 0 0-.75M16.375 6a1.625 1.625 0 1 1 3.25 0 1.625 1.625 0 0 1-3.25 0M12 7.625a4.375 4.375 0 1 0 0 8.75 4.375 4.375 0 0 0 0-8.75M6.375 12a5.625 5.625 0 1 1 11.25 0 5.625 5.625 0 0 1-11.25 0" clip-rule="evenodd"></path></svg>