<svg xmlns="http://www.w3.org/2000/svg" width="24" height="24" fill="none" style="cursor:pointer"><path fill="#000" fill-rule="evenodd" d="M12 2.625A9.375 9.375 0 0 0 2.625 12c0 1.418.314 2.761.877 3.964.053.114.07.241.05.365l-.712 4.395a.375.375 0 0 0 .432.43l4.355-.726a.63.63 0 0 1 .37.052 9.3 9.3 0 0 0 4.003.895 9.375 9.375 0 1 0 0-18.75M1.375 12C1.375 6.132 6.132 1.375 12 1.375S22.625 6.132 22.625 12 17.868 22.625 12 22.625a10.6 10.6 0 0 1-4.357-.932l-4.166.694a1.625 1.625 0 0 1-1.871-1.863l.682-4.208A10.6 10.6 0 0 1 1.375 12" clip-rule="evenodd"></path><path fill="#000" d="m10 9-4 6 4-3 4 3 4-6-4 3z"></path></svg>