<svg xmlns="http://www.w3.org/2000/svg" width="24" height="24" fill="none" style="cursor:pointer"><path fill="#000" fill-rule="evenodd" d="M12.375 3c0-.345.28-.625.625-.625h3c.345 0 .625.28.625.625A2.375 2.375 0 0 0 19 5.375h1c.345 0 .625.28.625.625v3c0 .345-.28.625-.625.625h-1a6.6 6.6 0 0 1-2.375-.439V15A6.625 6.625 0 1 1 10 8.375c.345 0 .625.28.625.625v3c0 .345-.28.625-.625.625A2.375 2.375 0 1 0 12.375 15zm1.25.625V15a3.625 3.625 0 1 1-4.25-3.571V9.66a5.376 5.376 0 1 0 6 5.339V8.197a.625.625 0 0 1 .938-.54c.79.456 1.707.718 2.687.718h.375v-1.75H19a3.626 3.626 0 0 1-3.571-3z" clip-rule="evenodd"></path></svg>